<?xml version="1.0" encoding="utf-8"?>
<!-- Generator: Adobe Illustrator 17.1.0, SVG Export Plug-In . SVG Version: 6.00 Build 0)  -->
<!DOCTYPE svg PUBLIC "-//W3C//DTD SVG 1.1//EN" "http://www.w3.org/Graphics/SVG/1.1/DTD/svg11.dtd">
<svg version="1.1" id="Layer_1" xmlns="http://www.w3.org/2000/svg" xmlns:xlink="http://www.w3.org/1999/xlink" x="0px" y="0px"
	 viewBox="0 0 283.5 283.5" style="enable-background:new 0 0 283.5 283.5;" xml:space="preserve">
<style type="text/css">
	.st0{fill:#356584;}
</style>
<g>
	<path class="st0" d="M111.2,141.7c0-16.9,13.7-30.6,30.6-30.6c16.9,0,30.6,13.7,30.6,30.6c0,16.9-13.7,30.6-30.6,30.6
		C124.9,172.3,111.2,158.6,111.2,141.7z"/>
	<g>
		<path class="st0" d="M238.5,155c-6.5,47.7-47.3,84.4-96.7,84.4c-49.4,0-90.3-36.7-96.7-84.4H14.2c6.6,64.6,61.2,115,127.6,115
			c66.4,0,120.9-50.4,127.6-115H238.5z"/>
		<path class="st0" d="M45,128.5c6.5-47.7,47.3-84.4,96.7-84.4c49.4,0,90.3,36.7,96.7,84.4h30.8c-6.6-64.6-61.2-115-127.6-115
			c-66.4,0-120.9,50.4-127.6,115H45z"/>
	</g>
</g>
</svg>
